<svg version="1.1" id="Layer_1" xmlns="http://www.w3.org/2000/svg" xmlns:xlink="http://www.w3.org/1999/xlink" x="0px" y="0px"
	 width="100%" viewBox="0 0 200 200" enable-background="new 0 0 200 200" xml:space="preserve">
<path fill="#FEFEFE" opacity="1.000000" stroke="none" 
	d="
M1.000000,121.000000 
	C1.000000,81.047462 1.000000,41.094929 1.000000,1.071197 
	C67.666649,1.071197 134.333313,1.071197 201.000000,1.071197 
	C201.000000,17.100689 201.000000,33.081684 200.491913,49.577656 
	C197.762817,50.599926 195.541840,51.107224 192.980164,51.477371 
	C190.971558,51.430489 189.303619,51.520748 187.356445,51.161755 
	C180.251190,49.277382 183.503662,53.787807 183.672302,56.839901 
	C183.692657,58.638233 183.715347,60.077038 183.485229,61.955509 
	C183.095581,74.597443 182.958755,86.799706 182.453918,99.013939 
	C181.612061,99.153175 180.783218,99.182175 180.716766,99.422226 
	C179.376282,104.264427 175.346344,108.633713 178.464142,114.295372 
	C179.224976,115.676949 178.661331,117.808197 178.641556,119.594048 
	C178.618332,121.692032 178.083466,123.894669 178.554794,125.864235 
	C179.464325,129.664795 178.259842,131.582947 174.346100,131.551971 
	C174.172592,128.074249 174.101990,125.038132 174.075897,121.535942 
	C174.063919,115.724541 174.007462,110.379211 174.015533,104.697006 
	C174.684586,102.904144 175.289093,101.448181 176.154572,99.855087 
	C176.544861,99.358681 176.674164,98.999405 176.809952,98.362335 
	C176.878174,97.719460 176.939911,97.354370 177.167297,96.909866 
	C177.398926,96.728928 177.544159,96.576042 177.517349,96.534653 
	C177.393326,96.343300 177.221451,96.182953 177.046829,95.633255 
	C176.680038,93.870171 176.333160,92.485329 175.873474,90.848389 
	C175.453079,90.406433 175.145493,90.216568 174.713547,89.844269 
	C174.457092,89.392174 174.269791,89.168816 174.075974,88.525558 
	C174.127533,76.778290 174.210541,65.495926 174.028107,54.217850 
	C174.006226,52.865517 172.623978,50.443375 171.734497,50.377510 
	C166.689621,50.003956 161.602798,50.196682 155.775803,50.196682 
	C156.287445,53.290359 156.676865,55.644917 157.069916,58.333294 
	C157.054413,59.111622 157.035248,59.556129 156.743988,60.302826 
	C156.520020,64.072235 156.568130,67.539452 156.455429,71.242142 
	C156.224380,71.652893 156.154160,71.828186 155.666153,71.992142 
	C150.964966,71.387848 146.402618,69.071365 142.860840,74.280228 
	C142.167786,76.346321 141.620712,78.094406 141.106018,80.065628 
	C141.245270,80.585388 141.440948,80.801552 141.964371,81.148224 
	C142.798416,81.967735 143.393509,82.576279 143.982239,83.541824 
	C143.197067,85.749718 142.418289,87.600601 141.142319,90.633163 
	C143.727402,89.185799 145.410675,88.243347 147.080902,87.308205 
	C147.889587,88.686852 148.591354,89.883247 149.271439,91.462646 
	C149.038956,92.580078 148.828171,93.314499 148.456451,94.188232 
	C148.116730,94.564934 148.034531,94.832054 148.042709,95.361420 
	C148.036514,95.593933 147.787201,95.986687 147.439331,96.042381 
	C144.656540,99.898079 142.221634,103.698074 139.575577,107.433327 
	C139.364426,107.368576 139.011063,107.103539 138.883514,106.852173 
	C138.431427,106.429413 138.106857,106.258011 137.471985,106.025444 
	C136.109436,105.262520 135.057175,104.560776 133.968643,103.578217 
	C133.289078,103.197357 132.645782,103.097298 131.636719,102.966576 
	C130.543945,102.833138 129.816956,102.730362 128.793106,102.414871 
	C127.535583,101.951218 126.584747,101.651085 125.612717,101.457108 
	C117.600304,99.858154 106.950294,104.533051 103.603760,110.911301 
	C100.799263,110.054146 98.192352,107.574303 96.149704,111.521149 
	C97.600594,113.372093 98.994362,115.150162 100.077255,117.007278 
	C99.194153,118.724129 98.621925,120.361931 97.910461,122.288666 
	C97.706642,123.390305 97.642044,124.203018 97.454758,125.394402 
	C97.283287,126.833946 97.234505,127.894821 96.763748,128.968430 
	C89.435898,129.356506 88.695595,130.130219 88.934837,136.722366 
	C89.111595,141.593063 86.591904,143.592758 82.882973,141.251053 
	C83.997253,136.928223 84.871582,132.896042 86.118942,128.982803 
	C86.837311,126.729134 87.796127,123.157486 89.277000,122.801575 
	C93.819786,121.709770 93.172508,118.765915 93.128654,115.687370 
	C93.083832,112.539429 93.411438,109.352730 92.997864,106.260315 
	C92.836830,105.056229 91.096458,104.063370 90.032669,102.527740 
	C89.642227,98.790993 89.294594,95.500809 88.941284,91.892815 
	C88.616447,91.034088 88.297310,90.493179 87.945229,89.608200 
	C84.314835,82.596870 78.620636,78.585136 71.415764,75.763779 
	C71.024063,80.527100 70.678047,84.734795 70.071472,89.193260 
	C68.247131,91.968971 66.683350,94.493919 64.877968,97.268707 
	C59.478493,102.131439 54.320610,106.744347 48.802708,111.281303 
	C43.337559,108.122437 38.232433,105.039520 33.086792,101.603180 
	C33.461498,100.187592 33.876720,99.125420 34.624229,97.997452 
	C39.020962,96.024483 43.085411,94.117317 47.520321,92.250229 
	C48.697788,92.443871 49.500214,92.629570 50.312595,92.745438 
	C53.880737,93.254364 56.969383,92.123253 57.404808,88.411034 
	C57.829704,84.788589 54.786404,83.174835 51.599113,83.095573 
	C48.411739,83.016312 45.205753,83.685570 41.625778,84.036781 
	C40.507629,84.234352 39.771629,84.421844 38.841274,84.540695 
	C38.348469,84.553253 38.168201,84.745522 37.760025,85.110786 
	C34.352234,87.829697 31.290525,90.486679 28.001783,93.433075 
	C27.151512,96.150375 26.528275,98.578255 25.521660,101.066620 
	C17.833937,102.101547 11.287413,104.709885 6.813748,110.817314 
	C4.518970,113.950142 2.915751,117.589539 1.000000,121.000000 
M94.080719,104.580940 
	C94.496422,105.404617 94.912117,106.228294 95.327812,107.051964 
	C95.935036,106.704269 96.542259,106.356575 97.291641,105.312263 
	C99.589699,101.928734 101.887749,98.545204 104.621017,94.792191 
	C105.099297,94.202179 105.577576,93.612175 106.767525,92.943497 
	C109.883659,91.551895 113.013641,90.190277 116.111656,88.759445 
	C118.715134,87.557030 121.281387,86.274017 124.408676,84.620247 
	C126.768349,80.460312 124.659210,77.824074 120.813293,77.879539 
	C116.810501,77.937279 112.832512,79.713730 108.149315,80.855988 
	C105.079315,83.858162 102.009308,86.860329 98.366554,90.268639 
	C97.191399,94.224594 96.016235,98.180550 94.546806,102.674911 
	C94.521271,103.078201 94.495743,103.481483 94.080719,104.580940 
M135.459732,96.290031 
	C136.037415,96.401871 136.615082,96.513710 137.192764,96.625549 
	C137.198257,96.215034 137.203751,95.804520 137.209244,95.394012 
	C136.628693,95.492149 136.048157,95.590286 135.459732,96.290031 
z"/>
<path fill="#FFFFFF" opacity="1.000000" stroke="none" 
	d="
M82.799438,141.591583 
	C86.591904,143.592758 89.111595,141.593063 88.934837,136.722366 
	C88.695595,130.130219 89.435898,129.356506 96.983444,129.252411 
	C98.134445,131.925903 98.643753,134.328125 98.981018,137.109634 
	C97.013985,144.013123 98.068298,145.372879 105.169655,145.849380 
	C105.126099,145.950333 105.251808,145.769913 105.167160,146.210587 
	C104.916382,149.293152 104.454918,151.788254 108.413292,152.416016 
	C110.986427,152.824097 112.630760,153.007874 113.418900,149.998322 
	C119.160568,150.315735 124.484833,150.602234 130.170074,151.052002 
	C136.011215,152.659805 137.970367,151.429337 138.974182,145.960785 
	C138.998917,145.993591 138.929047,145.950378 139.352509,145.966980 
	C141.771393,145.359482 143.766830,144.735382 145.762253,144.111267 
	C145.040161,143.010757 144.318085,141.910263 143.667267,140.592422 
	C143.738525,140.375092 144.000305,140.000000 144.372452,139.994720 
	C145.783997,139.230057 146.823410,138.470688 147.862808,137.711304 
	C147.251724,137.141449 146.640640,136.571609 146.045166,135.650024 
	C146.627457,133.530762 147.194153,131.763229 148.189987,130.003113 
	C151.103180,130.339890 153.587219,130.669250 156.115494,131.463989 
	C156.131287,136.951569 156.102875,141.973770 155.701447,147.062195 
	C155.296631,148.906769 155.264816,150.685120 155.233002,152.463440 
	C156.156174,151.860535 157.079346,151.257614 158.446411,150.512085 
	C162.656174,150.315079 166.440323,150.456848 170.178894,150.108948 
	C171.658508,149.971252 173.036835,148.744766 174.806671,148.010422 
	C176.564651,148.887558 177.888046,150.022736 179.420990,150.560226 
	C180.454742,150.922668 181.784241,150.441666 183.448029,150.297852 
	C189.609756,150.171829 195.304871,150.085907 201.000000,150.000000 
	C201.000000,166.975830 201.000000,183.951645 201.000000,200.963745 
	C134.452332,200.963745 67.904648,200.963745 1.000000,200.963745 
	C1.000000,182.313950 1.000000,163.625641 1.417304,144.468628 
	C3.337749,143.500595 4.840890,143.001251 6.626750,142.652069 
	C7.945086,143.854263 8.980706,144.906326 9.972485,146.330902 
	C8.132958,150.156876 9.575138,152.184067 13.046961,152.391586 
	C15.067022,152.512329 17.159634,151.419235 19.616783,150.879700 
	C23.673899,150.591843 27.333830,150.296616 31.249887,149.903687 
	C32.368351,149.857803 33.230690,149.909592 34.052853,149.967545 
	C34.012676,149.973694 34.059334,149.907120 34.046715,150.280304 
	C34.499035,151.380432 34.963970,152.107376 35.428913,152.834305 
	C35.968811,152.160278 36.508705,151.486267 37.504536,150.805145 
	C42.310452,150.577148 46.660431,150.356277 51.080017,150.478592 
	C53.483253,150.879639 55.816891,150.937500 58.447990,151.245682 
	C62.811665,151.286209 66.877876,151.076431 71.118393,151.207458 
	C73.095772,151.897751 74.894356,152.451263 76.704269,152.491180 
	C77.379105,152.506058 78.080406,151.321106 78.769638,150.683258 
	C77.981415,150.012634 77.193199,149.342010 76.561806,148.368011 
	C78.745560,145.906921 80.772499,143.749252 82.799438,141.591583 
z"/>
<path fill="#ABACAC" opacity="1.000000" stroke="none" 
	d="
M51.010410,150.135406 
	C46.660431,150.356277 42.310452,150.577148 37.271294,150.585541 
	C35.741188,150.217728 34.900261,150.062424 34.059334,149.907120 
	C34.059334,149.907120 34.012676,149.973694 34.004280,149.503845 
	C33.962627,145.205841 34.027664,141.373627 33.870430,137.550568 
	C33.686974,133.089981 33.696133,128.567169 32.903847,124.201660 
	C32.157089,120.087021 28.365669,118.900703 25.140066,120.174484 
	C22.907650,121.056046 20.436855,123.986664 20.039070,126.334816 
	C19.072405,132.041107 22.682743,134.327484 30.993763,133.604980 
	C30.993763,139.103546 30.993763,144.552475 30.993763,150.001389 
	C27.333830,150.296616 23.673899,150.591843 19.355055,150.638687 
	C15.802872,148.912994 12.909598,147.435684 10.016325,145.958374 
	C8.980706,144.906326 7.945086,143.854263 6.510641,142.343689 
	C4.407877,138.590103 2.703938,135.295044 1.000000,132.000000 
	C1.000000,128.638718 1.000000,125.277428 1.000000,121.458069 
	C2.915751,117.589539 4.518970,113.950142 6.813748,110.817314 
	C11.287413,104.709885 17.833937,102.101547 25.571905,101.469040 
	C25.952881,107.776627 29.070040,112.132118 33.411621,115.672272 
	C38.165070,119.548241 45.408421,120.065842 49.461426,117.060287 
	C50.177502,117.047295 50.585285,117.081604 51.008278,117.539322 
	C51.147839,119.281151 51.390598,120.600754 51.377556,121.917809 
	C51.284409,131.323959 51.139122,140.729599 51.010410,150.135406 
z"/>
<path fill="#AAAAAA" opacity="1.000000" stroke="none" 
	d="
M201.000000,149.531342 
	C195.304871,150.085907 189.609756,150.171829 183.236206,150.029678 
	C182.642578,148.199921 182.727371,146.598221 182.876022,144.532166 
	C182.900543,129.045853 182.861221,114.023918 182.821899,99.001976 
	C182.958755,86.799706 183.095581,74.597443 183.792557,62.085201 
	C186.799362,65.698715 190.146790,67.307312 194.497971,65.187691 
	C198.044312,63.460133 199.024963,60.126274 197.751877,56.723347 
	C197.011673,54.744755 194.845428,53.299667 193.320847,51.614517 
	C195.541840,51.107224 197.762817,50.599926 200.491913,50.046314 
	C201.000000,83.020897 201.000000,116.041786 201.000000,149.531342 
z"/>
<path fill="#FEFEFE" opacity="1.000000" stroke="none" 
	d="
M1.000000,132.460632 
	C2.703938,135.295044 4.407877,138.590103 6.227923,142.193527 
	C4.840890,143.001251 3.337749,143.500595 1.417304,143.999969 
	C1.000000,140.307098 1.000000,136.614182 1.000000,132.460632 
z"/>
<path fill="#ABACAC" opacity="1.000000" stroke="none" 
	d="
M147.760849,129.995712 
	C147.194153,131.763229 146.627457,133.530762 145.867035,135.918457 
	C145.115646,137.692413 144.557968,138.846207 144.000305,140.000000 
	C144.000305,140.000000 143.738525,140.375092 143.427292,140.784546 
	C141.720383,142.779465 140.324722,144.364929 138.929047,145.950378 
	C138.929047,145.950378 138.998917,145.993591 138.656158,146.091324 
	C135.478638,147.755615 132.643875,149.322174 129.809097,150.888733 
	C124.484833,150.602234 119.160568,150.315735 113.139099,149.809509 
	C110.045204,148.316483 107.648506,147.043198 105.251808,145.769913 
	C105.251808,145.769913 105.126099,145.950333 105.156082,145.513153 
	C103.175056,142.294098 101.164062,139.512222 99.153061,136.730347 
	C98.643753,134.328125 98.134445,131.925903 97.405434,129.239685 
	C97.234505,127.894821 97.283287,126.833946 97.790176,125.386612 
	C101.187843,123.287209 104.127403,121.574249 107.435226,119.850266 
	C108.537895,119.894043 109.272308,119.948860 110.010918,120.351715 
	C110.813728,121.152031 111.622726,121.994720 112.408730,121.973801 
	C113.958412,121.932571 115.495346,121.412529 116.952271,121.476395 
	C115.110565,126.082397 114.964256,130.071320 119.348343,132.743652 
	C123.624367,135.350082 126.751450,133.519211 129.446396,129.777847 
	C130.149216,128.802139 132.013870,128.332138 133.387650,128.235138 
	C137.013367,127.979111 140.671783,127.889938 144.297073,128.093216 
	C145.483490,128.159729 146.608017,129.330139 147.760849,129.995712 
z"/>
<path fill="#ADACAA" opacity="1.000000" stroke="none" 
	d="
M70.944084,150.866669 
	C66.877876,151.076431 62.811665,151.286209 58.460709,150.778275 
	C58.175964,144.593735 58.175964,139.126923 58.175964,133.148163 
	C64.964417,133.230209 67.725914,129.532166 67.927414,123.494377 
	C67.966286,122.329659 67.970772,121.162445 68.052887,120.000740 
	C68.753059,110.095230 74.746124,104.265450 84.821571,104.131851 
	C83.865997,107.277596 82.814224,110.055611 81.426544,112.926788 
	C79.794022,115.035500 78.447304,117.023628 77.299744,119.120743 
	C77.211754,119.281540 78.947556,120.816673 79.129654,120.690895 
	C81.015968,119.388000 82.783951,117.905632 84.513878,116.392059 
	C84.823906,116.120804 84.809952,115.479256 85.279297,114.909637 
	C87.100494,110.865158 88.587990,106.919724 90.075485,102.974297 
	C91.096458,104.063370 92.836830,105.056229 92.997864,106.260315 
	C93.411438,109.352730 93.083832,112.539429 93.128654,115.687370 
	C93.172508,118.765915 93.819786,121.709770 89.277000,122.801575 
	C87.796127,123.157486 86.837311,126.729134 86.118942,128.982803 
	C84.871582,132.896042 83.997253,136.928223 82.882973,141.251053 
	C80.772499,143.749252 78.745560,145.906921 76.248093,148.405090 
	C74.166397,149.452591 72.555237,150.159637 70.944084,150.866669 
z"/>
<path fill="#ABACAC" opacity="1.000000" stroke="none" 
	d="
M157.066284,57.999474 
	C156.676865,55.644917 156.287445,53.290359 155.775803,50.196682 
	C161.602798,50.196682 166.689621,50.003956 171.734497,50.377510 
	C172.623978,50.443375 174.006226,52.865517 174.028107,54.217850 
	C174.210541,65.495926 174.127533,76.778290 173.698090,88.532555 
	C171.525162,90.882896 169.504456,92.578354 168.107880,94.687157 
	C166.648178,96.891266 166.289383,99.968452 164.544891,101.804771 
	C162.178757,104.295486 162.826309,105.567757 165.143860,107.384781 
	C164.988846,108.160072 164.888367,108.600739 164.614349,109.144470 
	C164.231216,109.427361 164.077408,109.646400 163.969772,109.934448 
	C163.960144,109.964249 163.898148,109.955315 163.513107,109.969704 
	C160.705826,111.023148 158.283569,112.062195 155.662567,113.072052 
	C155.463821,113.042854 155.118073,112.838196 155.101959,112.430862 
	C155.109573,110.661491 155.133301,109.299454 155.379913,107.747742 
	C155.694397,106.987358 155.785980,106.416641 155.877274,105.629166 
	C155.876968,105.412415 155.941940,104.983810 156.298676,104.929932 
	C162.166840,99.486549 161.427750,92.677528 160.935364,85.520096 
	C160.558487,82.554863 160.204422,79.999268 159.895844,77.013245 
	C160.251801,75.028191 160.562256,73.473549 160.977142,71.395973 
	C159.364899,71.252045 157.990585,71.129356 156.616257,71.006668 
	C156.568130,67.539452 156.520020,64.072235 156.980316,60.553009 
	C158.771301,64.425079 161.436539,67.161255 165.535843,65.926315 
	C167.920486,65.207924 170.924728,62.591343 171.336517,60.395061 
	C171.745682,58.212864 169.875656,54.674896 167.905930,53.174118 
	C164.150146,50.312508 160.253448,52.366161 157.066284,57.999474 
M160.287491,107.541161 
	C160.399353,106.963257 160.511215,106.385353 160.623077,105.807449 
	C160.213104,105.802437 159.803131,105.797424 159.393158,105.792404 
	C159.490784,106.372925 159.588409,106.953453 160.287491,107.541161 
z"/>
<path fill="#ABACAC" opacity="1.000000" stroke="none" 
	d="
M156.074448,146.995972 
	C156.102875,141.973770 156.131287,136.951569 156.157043,131.007233 
	C156.089325,126.720375 156.024246,123.355629 155.972595,119.778679 
	C155.986008,119.566467 155.936508,119.143799 156.286835,119.051262 
	C157.352432,118.857552 158.067688,118.756378 159.135834,118.757721 
	C159.976303,118.862373 160.463882,118.864517 161.115295,119.198608 
	C162.579819,119.958130 164.452728,121.156380 165.086533,120.685783 
	C168.679108,118.018295 171.288010,120.066940 174.031387,122.002022 
	C174.101990,125.038132 174.172592,128.074249 174.235245,132.007904 
	C174.299057,137.265335 174.370834,141.625214 174.344406,146.319244 
	C174.317917,147.106964 174.389603,147.560501 174.461288,148.014038 
	C173.036835,148.744766 171.658508,149.971252 170.178894,150.108948 
	C166.440323,150.456848 162.656174,150.315079 158.196320,150.252289 
	C157.026382,149.088715 156.550415,148.042343 156.074448,146.995972 
z"/>
<path fill="#ADACAA" opacity="1.000000" stroke="none" 
	d="
M117.037552,121.090515 
	C115.495346,121.412529 113.958412,121.932571 112.408730,121.973801 
	C111.622726,121.994720 110.813728,121.152031 110.367088,120.308212 
	C114.657005,119.133377 114.749062,119.048042 114.017899,116.480911 
	C115.463997,115.447090 116.895103,114.804794 118.210983,114.496521 
	C119.089523,115.586929 120.865219,117.092796 120.963219,116.990562 
	C123.750732,114.082420 126.369446,111.012466 129.006058,107.982498 
	C128.996460,107.996124 128.975601,108.022125 129.287201,108.097153 
	C129.395752,107.767128 129.192688,107.362068 128.993195,106.527847 
	C129.027817,104.941650 129.058884,103.784615 129.089966,102.627594 
	C129.816956,102.730362 130.543945,102.833138 131.785004,103.224747 
	C132.867676,103.628723 133.436310,103.743874 134.004929,103.859024 
	C135.057175,104.560776 136.109436,105.262520 137.617188,106.261215 
	C138.385468,106.739952 138.698273,106.921745 139.011063,107.103539 
	C139.011063,107.103539 139.364426,107.368576 139.615921,107.649971 
	C139.977997,108.219040 140.017807,108.516243 139.873322,109.160629 
	C138.408401,111.328461 137.056992,113.158646 135.705582,114.988831 
	C136.030869,115.413185 136.356140,115.837540 136.681427,116.261887 
	C139.264038,115.498383 141.846634,114.734871 144.678741,114.001755 
	C145.095413,114.043510 145.262589,114.054878 145.465149,114.466202 
	C145.673691,117.047379 145.846848,119.228600 145.746857,121.316879 
	C144.952972,121.404213 144.432205,121.584480 143.450989,121.755478 
	C138.124100,121.498116 132.849808,122.332939 128.506119,120.696945 
	C124.173920,119.065292 120.801720,118.446709 117.037552,121.090515 
z"/>
<path fill="#FFFFFF" opacity="1.000000" stroke="none" 
	d="
M174.442596,145.985077 
	C174.370834,141.625214 174.299057,137.265335 174.338150,132.449539 
	C178.259842,131.582947 179.464325,129.664795 178.554794,125.864235 
	C178.083466,123.894669 178.618332,121.692032 178.641556,119.594048 
	C178.661331,117.808197 179.224976,115.676949 178.464142,114.295372 
	C175.346344,108.633713 179.376282,104.264427 180.716766,99.422226 
	C180.783218,99.182175 181.612061,99.153175 182.453918,99.013939 
	C182.861221,114.023918 182.900543,129.045853 182.476013,144.533279 
	C179.488968,145.327545 176.965790,145.656311 174.442596,145.985077 
z"/>
<path fill="#ABACAC" opacity="1.000000" stroke="none" 
	d="
M118.326210,114.162498 
	C116.895103,114.804794 115.463997,115.447090 113.681023,116.382385 
	C110.207848,114.764008 107.086540,112.852631 103.965233,110.941254 
	C106.950294,104.533051 117.600304,99.858154 125.612717,101.457108 
	C126.584747,101.651085 127.535583,101.951218 128.793091,102.414871 
	C129.058884,103.784615 129.027817,104.941650 128.963501,106.793816 
	C128.945389,107.666679 128.960495,107.844398 128.975601,108.022125 
	C128.975601,108.022125 128.996460,107.996124 128.675674,108.076004 
	C125.011993,110.158089 121.669098,112.160294 118.326210,114.162498 
z"/>
<path fill="#FCF7F1" opacity="1.000000" stroke="none" 
	d="
M145.429764,114.066246 
	C145.262589,114.054878 145.095413,114.043510 144.840027,113.663551 
	C145.697525,111.755753 147.004807,110.325195 147.507339,108.652817 
	C148.338837,105.885651 148.651688,102.962631 149.493896,99.892578 
	C150.657578,98.769524 151.870941,97.997841 152.285889,96.919044 
	C153.073502,94.871391 153.569260,92.666840 153.819778,90.485382 
	C153.891602,89.860016 152.705261,89.090157 152.095810,88.386551 
	C151.161591,89.284248 150.227356,90.181946 149.293137,91.079643 
	C148.591354,89.883247 147.889587,88.686852 147.080902,87.308205 
	C145.410675,88.243347 143.727402,89.185799 141.142319,90.633163 
	C142.418289,87.600601 143.197067,85.749718 144.419907,83.482948 
	C147.264374,82.807549 149.660782,82.391365 152.066254,82.329643 
	C154.840225,82.258469 158.086121,81.566315 158.507462,85.803513 
	C157.500015,88.981628 156.806335,92.018585 156.241379,95.079315 
	C155.750717,97.737602 155.405701,100.422775 154.711792,103.268364 
	C153.032104,105.401573 151.171417,107.193237 150.378876,109.373245 
	C149.654602,111.365440 150.086212,113.777863 150.046326,116.323929 
	C150.118958,117.069359 150.153702,117.495949 149.832336,117.905113 
	C148.127426,116.613869 146.778595,115.340057 145.429764,114.066246 
z"/>
<path fill="#2D2D2D" opacity="1.000000" stroke="none" 
	d="
M192.980164,51.477371 
	C194.845428,53.299667 197.011673,54.744755 197.751877,56.723347 
	C199.024963,60.126274 198.044312,63.460133 194.497971,65.187691 
	C190.146790,67.307312 186.799362,65.698715 184.045364,61.645538 
	C183.715347,60.077038 183.692657,58.638233 183.969818,56.730045 
	C185.391663,54.710781 186.513672,53.160896 187.635681,51.611012 
	C189.303619,51.520748 190.971558,51.430489 192.980164,51.477371 
z"/>
<path fill="#213D61" opacity="1.000000" stroke="none" 
	d="
M50.993073,117.115906 
	C50.585285,117.081604 50.177502,117.047295 49.037842,116.987534 
	C44.920879,116.016312 41.535782,115.070549 38.545631,114.072952 
	C42.347961,113.133163 45.755344,112.245209 49.162731,111.357254 
	C54.320610,106.744347 59.478493,102.131439 65.174599,97.129028 
	C69.039673,95.831703 67.857948,97.781631 67.381340,99.339653 
	C66.589615,101.927788 65.838089,104.528229 64.971848,107.443619 
	C61.129719,110.454552 57.385368,113.145340 53.509418,115.792709 
	C53.163506,115.775833 53.037685,115.895386 52.688080,116.316582 
	C51.914898,116.722107 51.453987,116.919006 50.993073,117.115906 
z"/>
<path fill="#4E76A4" opacity="1.000000" stroke="none" 
	d="
M38.150684,114.124794 
	C41.535782,115.070549 44.920879,116.016312 48.729553,117.034821 
	C45.408421,120.065842 38.165070,119.548241 33.411621,115.672272 
	C29.070040,112.132118 25.952881,107.776627 25.955280,101.408554 
	C26.528275,98.578255 27.151512,96.150375 28.285965,93.584297 
	C30.628771,94.985153 32.460358,96.524208 34.291946,98.063255 
	C33.876720,99.125420 33.461498,100.187592 33.008873,102.025963 
	C32.362743,107.644516 33.689945,111.601326 38.150684,114.124794 
z"/>
<path fill="#2D2D2D" opacity="1.000000" stroke="none" 
	d="
M157.069916,58.333294 
	C160.253448,52.366161 164.150146,50.312508 167.905930,53.174118 
	C169.875656,54.674896 171.745682,58.212864 171.336517,60.395061 
	C170.924728,62.591343 167.920486,65.207924 165.535843,65.926315 
	C161.436539,67.161255 158.771301,64.425079 157.252411,60.250816 
	C157.035248,59.556129 157.054413,59.111622 157.069916,58.333294 
z"/>
<path fill="#72BA54" opacity="1.000000" stroke="none" 
	d="
M123.864113,85.026688 
	C121.281387,86.274017 118.715134,87.557030 116.111656,88.759445 
	C113.013641,90.190277 109.883659,91.551895 106.083984,92.819130 
	C103.246735,91.750679 101.093018,90.806587 98.939308,89.862503 
	C102.009308,86.860329 105.079315,83.858162 108.716141,81.126122 
	C114.143341,82.606400 119.003731,83.816544 123.864113,85.026688 
z"/>
<path fill="#73A3CE" opacity="1.000000" stroke="none" 
	d="
M34.624229,97.997452 
	C32.460358,96.524208 30.628771,94.985153 28.513000,93.294876 
	C31.290525,90.486679 34.352234,87.829697 37.933838,85.080627 
	C38.679459,84.910858 38.873425,84.784454 39.035629,84.609344 
	C39.771629,84.421844 40.507629,84.234352 41.886902,84.262909 
	C44.070061,87.056023 45.609959,89.633087 47.149857,92.210144 
	C43.085411,94.117317 39.020962,96.024483 34.624229,97.997452 
z"/>
<path fill="#E7E62B" opacity="1.000000" stroke="none" 
	d="
M158.877136,85.672684 
	C158.086121,81.566315 154.840225,82.258469 152.066254,82.329643 
	C149.660782,82.391365 147.264374,82.807549 144.426300,83.125938 
	C143.393509,82.576279 142.798416,81.967735 141.969254,80.915451 
	C141.615723,80.155838 141.395187,79.946098 141.073624,79.842491 
	C141.620712,78.094406 142.167786,76.346321 143.276535,74.315781 
	C147.945496,74.081261 152.052795,74.129189 156.400925,74.348938 
	C157.711304,75.495071 158.780823,76.469368 159.850357,77.443665 
	C160.204422,79.999268 160.558487,82.554863 160.584625,85.512352 
	C159.796860,85.833717 159.337006,85.753197 158.877136,85.672684 
M149.169739,79.718834 
	C148.551819,78.239304 147.933884,76.759773 147.315948,75.280243 
	C146.285995,76.308449 145.256042,77.336647 144.226089,78.364853 
	C145.710938,78.992058 147.195770,79.619263 149.169739,79.718834 
z"/>
<path fill="#AF2F48" opacity="1.000000" stroke="none" 
	d="
M70.332039,88.942497 
	C70.678047,84.734795 71.024063,80.527100 71.415764,75.763779 
	C78.620636,78.585136 84.314835,82.596870 87.630531,89.467651 
	C82.848122,85.868591 82.003937,85.921982 79.606766,90.012848 
	C76.691277,88.671402 74.103310,84.479073 71.367615,89.793686 
	C70.914459,89.440826 70.623253,89.191658 70.332039,88.942497 
z"/>
<path fill="#ABACAC" opacity="1.000000" stroke="none" 
	d="
M38.545631,114.072952 
	C33.689945,111.601326 32.362743,107.644516 33.049389,102.379379 
	C38.232433,105.039520 43.337559,108.122437 48.802708,111.281303 
	C45.755344,112.245209 42.347961,113.133163 38.545631,114.072952 
z"/>
<path fill="#9AC7E8" opacity="1.000000" stroke="none" 
	d="
M47.520317,92.250229 
	C45.609959,89.633087 44.070061,87.056023 42.269043,84.252838 
	C45.205753,83.685570 48.411739,83.016312 51.599113,83.095573 
	C54.786404,83.174835 57.829704,84.788589 57.404808,88.411034 
	C56.969383,92.123253 53.880737,93.254364 50.312595,92.745438 
	C49.500214,92.629570 48.697788,92.443871 47.520317,92.250229 
z"/>
<path fill="#A4AEA9" opacity="1.000000" stroke="none" 
	d="
M165.198395,107.050163 
	C162.826309,105.567757 162.178757,104.295486 164.544891,101.804771 
	C166.289383,99.968452 166.648178,96.891266 168.107880,94.687157 
	C169.504456,92.578354 171.525162,90.882896 173.649414,88.998749 
	C174.269791,89.168816 174.457092,89.392174 174.806152,90.112572 
	C175.344177,90.742378 175.665237,90.921432 175.986282,91.100487 
	C176.333160,92.485329 176.680038,93.870171 176.985779,95.874619 
	C176.944656,96.494225 177.001648,96.989288 177.001648,96.989288 
	C176.939911,97.354370 176.878174,97.719460 176.516174,98.467201 
	C176.013382,98.897026 175.810837,98.944199 175.224304,99.047363 
	C170.722107,98.542191 168.268616,100.364563 167.075012,104.288147 
	C166.765671,105.305008 165.840622,106.134567 165.198395,107.050163 
z"/>
<path fill="#A4AEA9" opacity="1.000000" stroke="none" 
	d="
M174.075897,121.535942 
	C171.288010,120.066940 168.679108,118.018295 165.086533,120.685783 
	C164.452728,121.156380 162.579819,119.958130 161.148132,118.940636 
	C161.084763,118.011513 161.152405,117.672310 161.257690,117.315765 
	C161.295319,117.298424 161.359879,117.246452 161.697968,117.197113 
	C166.007690,113.109818 169.979340,109.071854 173.950989,105.033890 
	C174.007462,110.379211 174.063919,115.724541 174.075897,121.535942 
z"/>
<path fill="#46A681" opacity="1.000000" stroke="none" 
	d="
M174.015533,104.697006 
	C169.979340,109.071854 166.007690,113.109818 161.617233,116.855316 
	C161.789322,115.336128 162.380219,114.109398 162.990448,112.913055 
	C163.009781,112.943451 162.954651,112.989845 163.222504,112.840469 
	C163.641205,112.315498 163.792038,111.939903 163.918655,111.296707 
	C163.895676,110.671173 163.896912,110.313248 163.898148,109.955315 
	C163.898148,109.955315 163.960144,109.964249 164.175903,109.868454 
	C164.657227,109.601250 164.789307,109.357498 164.787888,109.041412 
	C164.888367,108.600739 164.988846,108.160072 165.143860,107.384781 
	C165.840622,106.134567 166.765671,105.305008 167.075012,104.288147 
	C168.268616,100.364563 170.722107,98.542191 175.278381,99.302696 
	C175.775482,99.665436 175.834534,99.828827 175.893585,99.992210 
	C175.289093,101.448181 174.684586,102.904144 174.015533,104.697006 
z"/>
<path fill="#42909D" opacity="1.000000" stroke="none" 
	d="
M103.603760,110.911301 
	C107.086540,112.852631 110.207848,114.764008 113.666031,116.773911 
	C114.749062,119.048042 114.657005,119.133377 110.362885,119.960159 
	C109.272308,119.948860 108.537895,119.894043 107.195663,119.614059 
	C105.069336,118.905556 103.550827,118.422226 101.825378,117.677132 
	C101.208336,117.252983 100.798233,117.090607 100.388130,116.928230 
	C98.994362,115.150162 97.600594,113.372093 96.149704,111.521149 
	C98.192352,107.574303 100.799263,110.054146 103.603760,110.911301 
z"/>
<path fill="#98C349" opacity="1.000000" stroke="none" 
	d="
M124.136398,84.823471 
	C119.003731,83.816544 114.143341,82.606400 109.063316,81.067459 
	C112.832512,79.713730 116.810501,77.937279 120.813293,77.879539 
	C124.659210,77.824074 126.768349,80.460312 124.136398,84.823471 
z"/>
<path fill="#DB3730" opacity="1.000000" stroke="none" 
	d="
M79.938683,90.139778 
	C82.003937,85.921982 82.848122,85.868591 87.663467,89.811707 
	C88.297310,90.493179 88.616447,91.034088 88.927185,92.319977 
	C88.721779,95.949913 88.524773,98.834869 88.327759,101.719833 
	C87.867188,101.712723 87.406616,101.705620 86.946045,101.698509 
	C86.332535,100.788887 85.719025,99.879265 84.934326,98.674011 
	C83.154991,95.632187 81.546837,92.885979 79.938683,90.139778 
z"/>
<path fill="#DD6633" opacity="1.000000" stroke="none" 
	d="
M85.105515,98.969643 
	C85.719025,99.879265 86.332535,100.788887 86.946045,101.698509 
	C87.406616,101.705620 87.867188,101.712723 88.327759,101.719833 
	C88.524773,98.834869 88.721779,95.949913 88.932877,92.637787 
	C89.294594,95.500809 89.642227,98.790993 90.032669,102.527740 
	C88.587990,106.919724 87.100494,110.865158 84.986664,114.774910 
	C83.494370,114.104034 82.628403,113.468834 81.762444,112.833633 
	C82.814224,110.055611 83.865997,107.277596 84.985298,103.759552 
	C85.070389,101.669563 85.087952,100.319603 85.105515,98.969643 
z"/>
<path fill="#393F5E" opacity="1.000000" stroke="none" 
	d="
M70.071472,89.193260 
	C70.623253,89.191658 70.914459,89.440826 71.623314,90.146301 
	C69.717186,96.109558 67.393410,101.616524 65.069633,107.123482 
	C65.838089,104.528229 66.589615,101.927788 67.381340,99.339653 
	C67.857948,97.781631 69.039673,95.831703 65.416191,96.879196 
	C66.683350,94.493919 68.247131,91.968971 70.071472,89.193260 
z"/>
<path fill="#46A681" opacity="1.000000" stroke="none" 
	d="
M98.652931,90.065567 
	C101.093018,90.806587 103.246735,91.750679 105.728149,92.858459 
	C105.577576,93.612175 105.099297,94.202179 104.199654,94.740150 
	C100.799217,97.170906 97.820145,99.653709 94.841072,102.136505 
	C96.016235,98.180550 97.191399,94.224594 98.652931,90.065567 
z"/>
<path fill="#2B7641" opacity="1.000000" stroke="none" 
	d="
M94.693939,102.405708 
	C97.820145,99.653709 100.799217,97.170906 103.982040,94.924896 
	C101.887749,98.545204 99.589699,101.928734 96.938370,105.552933 
	C95.880127,105.157326 95.175171,104.521049 94.470207,103.884773 
	C94.495743,103.481483 94.521271,103.078201 94.693939,102.405708 
z"/>
<path fill="#BB3B40" opacity="1.000000" stroke="none" 
	d="
M149.271439,91.462646 
	C150.227356,90.181946 151.161591,89.284248 152.095810,88.386551 
	C152.705261,89.090157 153.891602,89.860016 153.819778,90.485382 
	C153.569260,92.666840 153.073502,94.871391 152.285889,96.919044 
	C151.870941,97.997841 150.657578,98.769524 149.206924,99.864151 
	C148.417679,100.029724 148.226212,100.011017 147.973495,99.594238 
	C147.870560,98.126350 147.828873,97.056519 147.787201,95.986687 
	C147.787201,95.986687 148.036514,95.593933 148.238831,95.246063 
	C148.677750,94.652008 148.736496,94.368912 148.617386,94.048920 
	C148.828171,93.314499 149.038956,92.580078 149.271439,91.462646 
z"/>
<path fill="#ADACAA" opacity="1.000000" stroke="none" 
	d="
M102.032318,117.938889 
	C103.550827,118.422226 105.069336,118.905556 106.827408,119.625092 
	C104.127403,121.574249 101.187843,123.287209 97.912865,125.007950 
	C97.642044,124.203018 97.706642,123.390305 98.243187,122.252487 
	C99.820862,120.597885 100.926582,119.268387 102.032318,117.938889 
z"/>
<path fill="#FCF7F1" opacity="1.000000" stroke="none" 
	d="
M147.439331,96.042381 
	C147.828873,97.056519 147.870560,98.126350 147.809097,99.886002 
	C145.132919,103.324867 142.559875,106.073921 139.986832,108.822975 
	C140.017807,108.516243 139.977997,108.219040 139.827072,107.714722 
	C142.221634,103.698074 144.656540,99.898079 147.439331,96.042381 
z"/>
<path fill="#FCF7F1" opacity="1.000000" stroke="none" 
	d="
M156.160095,74.177109 
	C152.052795,74.129189 147.945496,74.081261 143.422516,73.997772 
	C146.402618,69.071365 150.964966,71.387848 155.696243,72.352798 
	C156.149445,73.208885 156.154770,73.692993 156.160095,74.177109 
z"/>
<path fill="#A4AEA9" opacity="1.000000" stroke="none" 
	d="
M156.400940,74.348938 
	C156.154770,73.692993 156.149445,73.208885 156.114029,72.364120 
	C156.154160,71.828186 156.224380,71.652893 156.455429,71.242142 
	C157.990585,71.129356 159.364899,71.252045 160.977142,71.395973 
	C160.562256,73.473549 160.251801,75.028191 159.895844,77.013245 
	C158.780823,76.469368 157.711304,75.495071 156.400940,74.348938 
z"/>
<path fill="#AAAAAA" opacity="1.000000" stroke="none" 
	d="
M187.356445,51.161755 
	C186.513672,53.160896 185.391663,54.710781 183.972137,56.370522 
	C183.503662,53.787807 180.251190,49.277382 187.356445,51.161755 
z"/>
<path fill="#ABACAC" opacity="1.000000" stroke="none" 
	d="
M101.825378,117.677124 
	C100.926582,119.268387 99.820862,120.597885 98.382416,121.963562 
	C98.621925,120.361931 99.194153,118.724129 100.077255,117.007278 
	C100.798233,117.090607 101.208336,117.252983 101.825378,117.677124 
z"/>
<path fill="#46A681" opacity="1.000000" stroke="none" 
	d="
M94.275467,104.232857 
	C95.175171,104.521049 95.880127,105.157326 96.867294,105.901237 
	C96.542259,106.356575 95.935036,106.704269 95.327812,107.051971 
	C94.912117,106.228294 94.496422,105.404617 94.275467,104.232857 
z"/>
<path fill="#FCF7F1" opacity="1.000000" stroke="none" 
	d="
M135.463669,95.989227 
	C136.048157,95.590286 136.628693,95.492149 137.209244,95.394012 
	C137.203751,95.804520 137.198257,96.215034 137.192764,96.625549 
	C136.615082,96.513710 136.037415,96.401871 135.463669,95.989227 
z"/>
<path fill="#FCF7F1" opacity="1.000000" stroke="none" 
	d="
M133.968643,103.578217 
	C133.436310,103.743874 132.867676,103.628723 132.150787,103.255409 
	C132.645782,103.097298 133.289078,103.197357 133.968643,103.578217 
z"/>
<path fill="#FCF7F1" opacity="1.000000" stroke="none" 
	d="
M141.106018,80.065628 
	C141.395187,79.946098 141.615723,80.155838 141.730316,80.704483 
	C141.440948,80.801552 141.245270,80.585388 141.106018,80.065628 
z"/>
<path fill="#9AC7E8" opacity="1.000000" stroke="none" 
	d="
M38.841274,84.540695 
	C38.873425,84.784454 38.679459,84.910858 38.279919,85.018707 
	C38.168201,84.745522 38.348469,84.553253 38.841274,84.540695 
z"/>
<path fill="#EEF0F0" opacity="1.000000" stroke="none" 
	d="
M175.873474,90.848389 
	C175.665237,90.921432 175.344177,90.742378 174.930527,90.295013 
	C175.145493,90.216568 175.453079,90.406433 175.873474,90.848389 
z"/>
<path fill="#FCF7F1" opacity="1.000000" stroke="none" 
	d="
M148.456451,94.188232 
	C148.736496,94.368912 148.677750,94.652008 148.245026,95.013550 
	C148.034531,94.832054 148.116730,94.564934 148.456451,94.188232 
z"/>
<path fill="#EEF0F0" opacity="1.000000" stroke="none" 
	d="
M177.167297,96.909866 
	C177.001648,96.989288 176.944656,96.494225 177.005707,96.252861 
	C177.221451,96.182953 177.393326,96.343300 177.517349,96.534653 
	C177.544159,96.576042 177.398926,96.728928 177.167297,96.909866 
z"/>
<path fill="#EEF0F0" opacity="1.000000" stroke="none" 
	d="
M176.154572,99.855087 
	C175.834534,99.828827 175.775482,99.665436 175.662354,99.246719 
	C175.810837,98.944199 176.013382,98.897026 176.509705,98.744995 
	C176.674164,98.999405 176.544861,99.358681 176.154572,99.855087 
z"/>
<path fill="#FCF7F1" opacity="1.000000" stroke="none" 
	d="
M138.883514,106.852173 
	C138.698273,106.921745 138.385468,106.739952 137.927490,106.322388 
	C138.106857,106.258011 138.431427,106.429413 138.883514,106.852173 
z"/>
<path fill="#FEFEFE" opacity="1.000000" stroke="none" 
	d="
M64.971848,107.443619 
	C67.393410,101.616524 69.717186,96.109558 71.785263,90.249985 
	C74.103310,84.479073 76.691277,88.671402 79.606766,90.012848 
	C81.546837,92.885979 83.154991,95.632187 84.934326,98.674011 
	C85.087952,100.319603 85.070389,101.669563 84.889099,103.391830 
	C74.746124,104.265450 68.753059,110.095230 68.052887,120.000740 
	C67.970772,121.162445 67.966286,122.329659 67.927414,123.494377 
	C67.725914,129.532166 64.964417,133.230209 58.175964,133.148163 
	C58.175964,139.126923 58.175964,144.593735 58.163246,150.527969 
	C55.816891,150.937500 53.483253,150.879639 51.080017,150.478577 
	C51.139122,140.729599 51.284409,131.323959 51.377556,121.917809 
	C51.390598,120.600754 51.147839,119.281151 51.008278,117.539322 
	C51.453987,116.919006 51.914898,116.722107 52.823181,116.428741 
	C53.571499,116.299728 53.694988,116.134346 53.641022,115.836128 
	C57.385368,113.145340 61.129719,110.454552 64.971848,107.443619 
z"/>
<path fill="#FEFEFE" opacity="1.000000" stroke="none" 
	d="
M145.465149,114.466202 
	C146.778595,115.340057 148.127426,116.613869 150.053192,117.925705 
	C150.630142,117.963715 151.017120,118.180748 151.191711,118.385040 
	C151.706406,118.678200 152.046539,118.767075 152.721069,118.865517 
	C153.711655,119.001587 154.367859,119.128082 155.137390,119.425812 
	C155.446350,119.801201 155.682495,119.932487 155.959167,119.990891 
	C156.024246,123.355629 156.089325,126.720375 156.112823,130.541870 
	C153.587219,130.669250 151.103180,130.339890 148.189987,130.003113 
	C146.608017,129.330139 145.483490,128.159729 144.297073,128.093216 
	C140.671783,127.889938 137.013367,127.979111 133.387650,128.235138 
	C132.013870,128.332138 130.149216,128.802139 129.446396,129.777847 
	C126.751450,133.519211 123.624367,135.350082 119.348343,132.743652 
	C114.964256,130.071320 115.110565,126.082397 116.952271,121.476395 
	C120.801720,118.446709 124.173920,119.065292 128.506119,120.696945 
	C132.849808,122.332939 138.124100,121.498116 143.586578,122.008865 
	C144.795090,121.984283 145.407547,121.697044 146.019989,121.409805 
	C145.846848,119.228600 145.673691,117.047379 145.465149,114.466202 
z"/>
<path fill="#FEFEFE" opacity="1.000000" stroke="none" 
	d="
M31.249887,149.903687 
	C30.993763,144.552475 30.993763,139.103546 30.993763,133.604980 
	C22.682743,134.327484 19.072405,132.041107 20.039070,126.334816 
	C20.436855,123.986664 22.907650,121.056046 25.140066,120.174484 
	C28.365669,118.900703 32.157089,120.087021 32.903847,124.201660 
	C33.696133,128.567169 33.686974,133.089981 33.870430,137.550568 
	C34.027664,141.373627 33.962627,145.205841 34.044456,149.497696 
	C33.230690,149.909592 32.368351,149.857803 31.249887,149.903687 
z"/>
<path fill="#FEFEFE" opacity="1.000000" stroke="none" 
	d="
M174.344406,146.319260 
	C176.965790,145.656311 179.488968,145.327545 182.412170,144.997650 
	C182.727371,146.598221 182.642578,148.199921 182.769592,150.069794 
	C181.784241,150.441666 180.454742,150.922668 179.420990,150.560226 
	C177.888046,150.022736 176.564651,148.887558 174.806671,148.010422 
	C174.389603,147.560501 174.317917,147.106964 174.344406,146.319260 
z"/>
<path fill="#FEFEFE" opacity="1.000000" stroke="none" 
	d="
M105.167160,146.210587 
	C107.648506,147.043198 110.045204,148.316483 112.721695,149.778580 
	C112.630760,153.007874 110.986427,152.824097 108.413292,152.416016 
	C104.454918,151.788254 104.916382,149.293152 105.167160,146.210587 
z"/>
<path fill="#FEFEFE" opacity="1.000000" stroke="none" 
	d="
M9.972485,146.330902 
	C12.909598,147.435684 15.802872,148.912994 18.957874,150.631317 
	C17.159634,151.419235 15.067022,152.512329 13.046961,152.391586 
	C9.575138,152.184067 8.132958,150.156876 9.972485,146.330902 
z"/>
<path fill="#FEFEFE" opacity="1.000000" stroke="none" 
	d="
M98.981026,137.109634 
	C101.164062,139.512222 103.175056,142.294098 105.199631,145.412201 
	C98.068298,145.372879 97.013985,144.013123 98.981026,137.109634 
z"/>
<path fill="#FEFEFE" opacity="1.000000" stroke="none" 
	d="
M71.118393,151.207458 
	C72.555237,150.159637 74.166397,149.452591 76.091263,148.708481 
	C77.193199,149.342010 77.981415,150.012634 78.769638,150.683258 
	C78.080406,151.321106 77.379105,152.506058 76.704269,152.491180 
	C74.894356,152.451263 73.095772,151.897751 71.118393,151.207458 
z"/>
<path fill="#FEFEFE" opacity="1.000000" stroke="none" 
	d="
M130.170074,151.052017 
	C132.643875,149.322174 135.478638,147.755615 138.631439,146.058502 
	C137.970367,151.429337 136.011215,152.659805 130.170074,151.052017 
z"/>
<path fill="#FEFEFE" opacity="1.000000" stroke="none" 
	d="
M139.352509,145.966980 
	C140.324722,144.364929 141.720383,142.779465 143.356018,141.001892 
	C144.318085,141.910263 145.040161,143.010757 145.762253,144.111267 
	C143.766830,144.735382 141.771393,145.359482 139.352509,145.966980 
z"/>
<path fill="#FEFEFE" opacity="1.000000" stroke="none" 
	d="
M155.701447,147.062195 
	C156.550415,148.042343 157.026382,149.088715 157.752441,150.394882 
	C157.079346,151.257614 156.156174,151.860535 155.233002,152.463440 
	C155.264816,150.685120 155.296631,148.906769 155.701447,147.062195 
z"/>
<path fill="#FEFEFE" opacity="1.000000" stroke="none" 
	d="
M144.372452,139.994720 
	C144.557968,138.846207 145.115646,137.692413 145.851440,136.270187 
	C146.640640,136.571609 147.251724,137.141449 147.862808,137.711304 
	C146.823410,138.470688 145.783997,139.230057 144.372452,139.994720 
z"/>
<path fill="#FEFEFE" opacity="1.000000" stroke="none" 
	d="
M34.046715,150.280304 
	C34.900261,150.062424 35.741188,150.217728 36.815361,150.592636 
	C36.508705,151.486267 35.968811,152.160278 35.428913,152.834305 
	C34.963970,152.107376 34.499035,151.380432 34.046715,150.280304 
z"/>
<path fill="#E7E62B" opacity="1.000000" stroke="none" 
	d="
M81.426544,112.926788 
	C82.628403,113.468834 83.494370,114.104034 84.652962,114.873962 
	C84.809952,115.479256 84.823906,116.120804 84.513878,116.392059 
	C82.783951,117.905632 81.015968,119.388000 79.129654,120.690895 
	C78.947556,120.816673 77.211754,119.281540 77.299744,119.120743 
	C78.447304,117.023628 79.794022,115.035500 81.426544,112.926788 
z"/>
<path fill="#A4AEA9" opacity="1.000000" stroke="none" 
	d="
M158.507462,85.803513 
	C159.337006,85.753197 159.796860,85.833717 160.607452,85.921982 
	C161.427750,92.677528 162.166840,99.486549 156.179138,104.693619 
	C155.467331,104.039474 155.231827,103.567772 154.996307,103.096069 
	C155.405701,100.422775 155.750717,97.737602 156.241379,95.079315 
	C156.806335,92.018585 157.500015,88.981628 158.507462,85.803513 
z"/>
<path fill="#2B7641" opacity="1.000000" stroke="none" 
	d="
M151.017120,118.180740 
	C151.017120,118.180748 150.630142,117.963715 150.409286,117.943130 
	C150.153702,117.495949 150.118958,117.069359 150.336899,116.166115 
	C152.099075,114.739037 153.608582,113.788620 155.118073,112.838196 
	C155.118073,112.838196 155.463821,113.042854 155.925629,113.334473 
	C158.582001,113.378281 160.776566,113.130470 162.971115,112.882660 
	C162.380219,114.109398 161.789322,115.336128 161.279144,116.904655 
	C161.359879,117.246452 161.295319,117.298424 160.942017,117.234482 
	C159.986786,117.665436 159.384872,118.160324 158.782959,118.655212 
	C158.067688,118.756378 157.352432,118.857552 156.052689,119.030579 
	C155.468216,119.102440 155.024048,119.254585 155.024048,119.254585 
	C154.367859,119.128082 153.711655,119.001587 152.568253,118.627472 
	C151.726395,118.313492 151.371765,118.247116 151.017120,118.180740 
z"/>
<path fill="#72BA54" opacity="1.000000" stroke="none" 
	d="
M155.101959,112.430870 
	C153.608582,113.788620 152.099075,114.739037 150.298996,115.847275 
	C150.086212,113.777863 149.654602,111.365440 150.378876,109.373245 
	C151.171417,107.193237 153.032104,105.401573 154.711792,103.268364 
	C155.231827,103.567772 155.467331,104.039474 155.822388,104.747498 
	C155.941940,104.983810 155.876968,105.412415 155.653717,105.823555 
	C155.339325,106.802269 155.248169,107.369835 155.157013,107.937408 
	C155.133301,109.299454 155.109573,110.661491 155.101959,112.430870 
z"/>
<path fill="#A4AEA9" opacity="1.000000" stroke="none" 
	d="
M162.990448,112.913055 
	C160.776566,113.130470 158.582001,113.378281 156.124390,113.363663 
	C158.283569,112.062195 160.705826,111.023148 163.513107,109.969704 
	C163.896912,110.313248 163.895676,110.671173 163.673859,111.482376 
	C163.287064,112.287048 163.120850,112.638443 162.954651,112.989838 
	C162.954651,112.989845 163.009781,112.943451 162.990448,112.913055 
z"/>
<path fill="#A4AEA9" opacity="1.000000" stroke="none" 
	d="
M159.986755,107.537567 
	C159.588409,106.953453 159.490784,106.372925 159.393158,105.792404 
	C159.803131,105.797424 160.213104,105.802437 160.623077,105.807449 
	C160.511215,106.385353 160.399353,106.963257 159.986755,107.537567 
z"/>
<path fill="#A4AEA9" opacity="1.000000" stroke="none" 
	d="
M155.379913,107.747742 
	C155.248169,107.369835 155.339325,106.802269 155.654022,106.040306 
	C155.785980,106.416641 155.694397,106.987358 155.379913,107.747742 
z"/>
<path fill="#A4AEA9" opacity="1.000000" stroke="none" 
	d="
M164.614349,109.144470 
	C164.789307,109.357498 164.657227,109.601250 164.185547,109.838654 
	C164.077408,109.646400 164.231216,109.427361 164.614349,109.144470 
z"/>
<path fill="#46A681" opacity="1.000000" stroke="none" 
	d="
M159.135834,118.757721 
	C159.384872,118.160324 159.986786,117.665436 160.904373,117.251816 
	C161.152405,117.672310 161.084763,118.011513 160.984299,118.608688 
	C160.463882,118.864517 159.976303,118.862373 159.135834,118.757721 
z"/>
<path fill="#FCF7F1" opacity="1.000000" stroke="none" 
	d="
M155.137390,119.425812 
	C155.024048,119.254585 155.468216,119.102440 155.702362,119.123123 
	C155.936508,119.143799 155.986008,119.566467 155.972595,119.778679 
	C155.682495,119.932487 155.446350,119.801201 155.137390,119.425812 
z"/>
<path fill="#DD6633" opacity="1.000000" stroke="none" 
	d="
M139.873322,109.160629 
	C142.559875,106.073921 145.132919,103.324867 147.870361,100.284058 
	C148.226212,100.011017 148.417679,100.029724 148.896118,100.076859 
	C148.651688,102.962631 148.338837,105.885651 147.507339,108.652817 
	C147.004807,110.325195 145.697525,111.755753 144.590530,113.633163 
	C141.846634,114.734871 139.264038,115.498383 136.681427,116.261887 
	C136.356140,115.837540 136.030869,115.413185 135.705582,114.988831 
	C137.056992,113.158646 138.408401,111.328461 139.873322,109.160629 
z"/>
<path fill="#393F5E" opacity="1.000000" stroke="none" 
	d="
M118.210983,114.496521 
	C121.669098,112.160294 125.011993,110.158089 128.685272,108.062370 
	C126.369446,111.012466 123.750732,114.082420 120.963219,116.990562 
	C120.865219,117.092796 119.089523,115.586929 118.210983,114.496521 
z"/>
<path fill="#FCF7F1" opacity="1.000000" stroke="none" 
	d="
M145.746857,121.316879 
	C145.407547,121.697044 144.795090,121.984283 144.047043,122.018135 
	C144.432205,121.584480 144.952972,121.404213 145.746857,121.316879 
z"/>
<path fill="#393F5E" opacity="1.000000" stroke="none" 
	d="
M129.287201,108.097153 
	C128.960495,107.844398 128.945389,107.666679 128.959961,107.222984 
	C129.192688,107.362068 129.395752,107.767128 129.287201,108.097153 
z"/>
<path fill="#4E76A4" opacity="1.000000" stroke="none" 
	d="
M53.509418,115.792709 
	C53.694988,116.134346 53.571499,116.299728 53.135452,116.220123 
	C53.037685,115.895386 53.163506,115.775833 53.509418,115.792709 
z"/>
<path fill="#EEF0F0" opacity="1.000000" stroke="none" 
	d="
M148.925171,79.982651 
	C147.195770,79.619263 145.710938,78.992058 144.226089,78.364853 
	C145.256042,77.336647 146.285995,76.308449 147.315948,75.280243 
	C147.933884,76.759773 148.551819,78.239304 148.925171,79.982651 
z"/>
<path fill="#2B7641" opacity="1.000000" stroke="none" 
	d="
M163.222504,112.840469 
	C163.120850,112.638443 163.287064,112.287048 163.698059,111.749985 
	C163.792038,111.939903 163.641205,112.315498 163.222504,112.840469 
z"/>
<path fill="#FCF7F1" opacity="1.000000" stroke="none" 
	d="
M151.191711,118.385040 
	C151.371765,118.247116 151.726395,118.313492 152.233856,118.617905 
	C152.046539,118.767075 151.706406,118.678200 151.191711,118.385040 
z"/>
</svg>